<svg xmlns="http://www.w3.org/2000/svg" viewBox="0 0 426.5 334.91"><defs><style>.cls-1{fill:#297137;}.cls-2{fill:#3eaf40;}.cls-3,.cls-8{fill:#0e6c37;}.cls-4{fill:#a1d2a0;}.cls-5,.cls-8{font-size:65.66px;font-family:Montserrat-Bold, Montserrat;font-weight:700;}.cls-5{fill:#3aaf3f;letter-spacing:-0.04em;}.cls-6{letter-spacing:-0.05em;}.cls-7{letter-spacing:-0.03em;}.cls-8{letter-spacing:-0.02em;}.cls-9{letter-spacing:-0.03em;}.cls-10{letter-spacing:-0.03em;}.cls-11{letter-spacing:-0.04em;}</style></defs><g id="Logo"><path class="cls-1" d="M725.21,348.19a10.36,10.36,0,0,1-4.34-1L581.79,282.88,442.72,347.23a10.36,10.36,0,1,1-8.7-18.8l143.42-66.36a10.34,10.34,0,0,1,8.7,0l143.43,66.36a10.36,10.36,0,0,1-4.36,19.76Z" transform="translate(-386.7 -261.11)"/><path class="cls-2" d="M520.9,349.57c-1.43-4.67-1.06-14.6,9.68-17.07,13.5-3.1,16.35,9,16.61,11.88s.61,14-7.18,17.12S523.35,357.55,520.9,349.57Zm45.7-42.63a6.25,6.25,0,0,0-6.83,5.77c-.89,18.44-3.63,40.21-6.1,51.24-2,9.15-12.36,14.09-21.14,10.1-14.61-6.65-33.43-19-48-29.3a7.17,7.17,0,0,0-9.68,1.14,6.44,6.44,0,0,0,.93,9c9.76,8.3,21.66,19,30.33,28.78a35,35,0,0,1,5,39.31c-8.43,16.52-20.46,36.22-40,66.68-2,3.1-1.76,7.21,1.16,9.55,3.35,2.68,9.27,2.69,11.77-.64,15.81-21.14,33.42-44.54,50-63a6.19,6.19,0,0,1,10.77,3.74c.83,15,1.16,33.12,1,54.84a6.84,6.84,0,0,0,13.5,1.59c14-70.5,15.16-142.69,13.55-182.87-.14-3.48-3.06-5.66-6.28-5.85Z" transform="translate(-386.7 -261.11)"/><path class="cls-3" d="M623.15,361.5c-7.79-3.11-7.44-14.21-7.18-17.12s3.11-15,16.61-11.88c10.74,2.47,11.11,12.4,9.68,17.07C639.81,357.55,631,364.61,623.15,361.5Zm-26.6-54.56c-3.21.19-6.13,2.37-6.27,5.85-1.61,40.18-.48,112.37,13.55,182.87a6.84,6.84,0,0,0,13.5-1.59c-.14-21.72.18-39.85,1-54.84a6.19,6.19,0,0,1,10.77-3.74c16.58,18.5,34.19,41.9,50,63,2.5,3.33,8.42,3.32,11.77.64,2.92-2.34,3.15-6.45,1.16-9.55-19.57-30.46-31.6-50.16-40-66.68a35,35,0,0,1,5-39.31c8.66-9.74,20.57-20.48,30.33-28.78a6.44,6.44,0,0,0,.93-9,7.17,7.17,0,0,0-9.68-1.14c-14.57,10.3-33.39,22.65-48,29.3-8.78,4-19.09-.95-21.14-10.1-2.47-11-5.21-32.8-6.1-51.24a6.26,6.26,0,0,0-6.84-5.77Z" transform="translate(-386.7 -261.11)"/><path class="cls-4" d="M467.52,376.59v79.65a3.62,3.62,0,0,0,6.5,2.21c7.76-10.13,20.5-28.17,27.24-45.39a17,17,0,0,0-3.6-17.93,233.06,233.06,0,0,0-24.28-21.39A3.62,3.62,0,0,0,467.52,376.59Z" transform="translate(-386.7 -261.11)"/><path class="cls-4" d="M696.07,376.59v79.65a3.62,3.62,0,0,1-6.5,2.21c-7.76-10.13-20.51-28.17-27.24-45.39a17,17,0,0,1,3.6-17.93,233.06,233.06,0,0,1,24.28-21.39A3.62,3.62,0,0,1,696.07,376.59Z" transform="translate(-386.7 -261.11)"/><text class="cls-5" transform="translate(0 317.45)">F<tspan class="cls-6" x="39.06" y="0">e</tspan><tspan class="cls-7" x="77.54" y="0">ar</tspan></text><text class="cls-8" transform="translate(151.53 317.45)">n<tspan class="cls-9" x="43.79" y="0">o </tspan><tspan x="101.44" y="0">m</tspan><tspan class="cls-10" x="168.73" y="0">o</tspan><tspan class="cls-11" x="209.77" y="0">r</tspan><tspan class="cls-10" x="235.51" y="0">e</tspan></text></g></svg>