<svg xmlns="http://www.w3.org/2000/svg" xmlns:xlink="http://www.w3.org/1999/xlink" viewBox="0 0 523.46 335.67"><defs><style>.cls-1{font-size:87.45px;fill:#0d6f38;font-family:Ubuntu-Bold, Ubuntu;font-weight:700;}.cls-2{letter-spacing:-0.01em;}.cls-3{letter-spacing:0em;}.cls-4{letter-spacing:-0.01em;}.cls-5{fill:url(#무제_그라디언트_22);}.cls-6{fill:url(#무제_그라디언트_25);}.cls-7{fill:url(#무제_그라디언트_24);}.cls-8{fill:url(#무제_그라디언트_23);}.cls-9{fill:url(#무제_그라디언트_21);}.cls-10{fill:url(#무제_그라디언트_20);}</style><linearGradient id="무제_그라디언트_22" x1="478.27" y1="738.57" x2="639.26" y2="738.57" gradientUnits="userSpaceOnUse"><stop offset="0" stop-color="#0d6f38"/><stop offset="0.52" stop-color="#0d6f38"/><stop offset="1" stop-color="#0d6f38"/></linearGradient><linearGradient id="무제_그라디언트_25" x1="554.13" y1="806.46" x2="710.69" y2="806.46" gradientUnits="userSpaceOnUse"><stop offset="0" stop-color="#0d6f38"/><stop offset="0.48" stop-color="#0d6f38"/><stop offset="1" stop-color="#75b32f"/></linearGradient><linearGradient id="무제_그라디언트_24" x1="528.73" y1="783.62" x2="689.39" y2="783.62" gradientUnits="userSpaceOnUse"><stop offset="0" stop-color="#75b32f"/><stop offset="0.52" stop-color="#0d6f38"/><stop offset="1" stop-color="#0d6f38"/></linearGradient><linearGradient id="무제_그라디언트_23" x1="490.03" y1="752.85" x2="681.7" y2="752.85" gradientUnits="userSpaceOnUse"><stop offset="0" stop-color="#75b32f"/><stop offset="0.48" stop-color="#0d6f38"/><stop offset="1" stop-color="#75b32f"/></linearGradient><linearGradient id="무제_그라디언트_21" x1="446.57" y1="726.37" x2="572.55" y2="726.37" gradientUnits="userSpaceOnUse"><stop offset="0" stop-color="#75b32f"/><stop offset="0.48" stop-color="#0d6f38"/><stop offset="1" stop-color="#0d6f38"/></linearGradient><linearGradient id="무제_그라디언트_20" x1="457.97" y1="708.79" x2="534.19" y2="708.79" gradientUnits="userSpaceOnUse"><stop offset="0" stop-color="#0d6f38"/><stop offset="0.52" stop-color="#0d6f38"/><stop offset="1" stop-color="#78bc29"/></linearGradient></defs><g id="Logo"><text class="cls-1" transform="translate(0 316.35)"><tspan class="cls-2">F</tspan><tspan class="cls-3" x="49.32" y="0">earNoMo</tspan><tspan class="cls-4" x="436.36" y="0">r</tspan><tspan x="472.39" y="0">e</tspan></text><path class="cls-5" d="M478.27,790.79l14,14,147-131a69.29,69.29,0,0,0-62.9,18.92Z" transform="translate(-329.14 -659.23)"/><path class="cls-6" d="M554.13,866.65l22.23,22.23,98.1-98.09a69,69,0,0,0,20-42.53L710.69,724Z" transform="translate(-329.14 -659.23)"/><path class="cls-7" d="M685,706.27l-156.3,135L548.44,861l140.95-146A68.68,68.68,0,0,0,685,706.27Z" transform="translate(-329.14 -659.23)"/><path class="cls-8" d="M674.46,692.7A69.2,69.2,0,0,0,662.3,683l13.94-21.93L496.64,809.15,508.5,821,490,844.65,681.7,701.21A69.69,69.69,0,0,0,674.46,692.7Z" transform="translate(-329.14 -659.23)"/><path class="cls-9" d="M558.66,679.85l13.89-20.62-113.9,92.2a68.59,68.59,0,0,0,4,15.4l-16.07,26.69L571.14,688A69.22,69.22,0,0,0,558.66,679.85Z" transform="translate(-329.14 -659.23)"/><path class="cls-10" d="M478.27,692.7a69.14,69.14,0,0,0-20.21,52.49l76.13-72.46A69.19,69.19,0,0,0,478.27,692.7Z" transform="translate(-329.14 -659.23)"/></g></svg>