<svg xmlns="http://www.w3.org/2000/svg" viewBox="0 0 467.39 358.54"><defs><style>.cls-1{font-size:48.16px;font-family:Montserrat-ExtraBold, Montserrat;font-weight:800;letter-spacing:0.2em;}.cls-1,.cls-3{fill:#007233;}.cls-2{fill:#6fba2f;}</style></defs><g id="Logo"><text id="name" class="cls-1" transform="translate(0 345.63)">FEARNOMORE</text><path class="cls-2" d="M473.08,1237.22A96.77,96.77,0,0,0,519,1306a33,33,0,0,1,41-28.25,33,33,0,0,1,41.06,28.44c24-13.9,40.08-37,45.91-69,1-5.68,1.74-10.41,2.2-14.37l-80.84-80.84Z" transform="translate(-352.3 -1081.31)"/><rect class="cls-3" x="221.55" y="116" width="22.08" height="22.08"/><rect class="cls-3" x="188.42" y="116" width="22.08" height="22.08"/><rect class="cls-3" x="221.55" y="149.13" width="22.08" height="22.08"/><rect class="cls-3" x="188.42" y="149.13" width="22.08" height="22.08"/><path class="cls-3" d="M568.32,1101.51,719,1252.2a154,154,0,0,0,2.31-17.89l-153-153-153,153a154,154,0,0,0,2.31,17.89Z" transform="translate(-352.3 -1081.31)"/><path class="cls-3" d="M568.37,1121.72,421.64,1268.45a152.24,152.24,0,0,0,5.39,14.81l11-11a139.23,139.23,0,0,0,260.61-.06l11,11a151.47,151.47,0,0,0,5.39-14.82Zm0,20.2,95.2,95.21a96.67,96.67,0,0,1-62.29,76.67v-4.19a33,33,0,1,0-65.92,0v4.18a96.77,96.77,0,0,1-62.28-76.57Zm0,206.26a125,125,0,0,1-119-87.2l11.59-11.59a111.18,111.18,0,0,0,79.82,81l8.93,2.3v-23.1a18.67,18.67,0,1,1,37.34,0v23.1l8.92-2.3a111,111,0,0,0,79.84-81.09l11.6,11.59A125,125,0,0,1,568.32,1348.18Z" transform="translate(-352.3 -1081.31)"/></g></svg>